<svg width="24" height="24" viewBox="0 0 24 24" fill="none" xmlns="http://www.w3.org/2000/svg">
<path fill-rule="evenodd" clip-rule="evenodd" d="M19.451 1.32871C19.1231 1.13678 18.7037 1.25068 18.5143 1.58311L16.4171 5.26605C14.9884 4.59728 13.5094 4.25533 12.0122 4.25533C7.9895 4.25533 4.09803 6.7255 0.959975 11.3692L0.947529 11.3875L0.936643 11.4032C0.832117 11.5529 0.829448 11.7289 0.936121 11.8768C3.25173 15.3164 5.98036 17.569 8.87009 18.5158L7.19948 21.4476C7.01009 21.7801 7.12247 22.2051 7.45044 22.397L7.74738 22.5708C8.07535 22.7627 8.49472 22.6489 8.68409 22.3164L19.9989 2.45191C20.1883 2.11948 20.0759 1.69442 19.7479 1.50248L19.451 1.32871ZM15.5075 6.86317C14.3446 6.35119 13.1704 6.10164 12.0122 6.10164C9.08935 6.10164 6.0636 7.69122 3.37639 11.0776C3.11842 11.4027 3.11842 11.8766 3.37639 12.2018C5.39071 14.7403 7.59519 16.2695 9.80403 16.8763L10.959 14.8484C9.63963 14.4276 8.5486 13.2537 8.5486 11.6415C8.5486 9.60221 10.1117 7.94885 12.0395 7.94885C12.9293 7.94885 13.7415 8.30114 14.3581 8.88101L15.5075 6.86317ZM13.4049 10.5546C13.108 10.0943 12.6198 9.79515 12.0395 9.79515C11.0747 9.79515 10.2857 10.6205 10.2857 11.6402C10.2857 12.314 11.0085 13.1015 11.9164 13.1678L13.4049 10.5546Z" fill="black"/>
<path d="M12.5891 19.0081C16.3981 18.7841 20.0619 16.3446 23.0455 11.9408C23.108 11.8486 23.1429 11.7532 23.1429 11.6397C23.1429 11.5315 23.1129 11.4412 23.0534 11.3533C21.9068 9.658 20.6593 8.25327 19.3416 7.15332L18.4337 8.74729C19.1903 9.3988 19.9312 10.1743 20.6481 11.0776C20.9061 11.4027 20.9061 11.8766 20.6481 12.2017C18.4865 14.9258 16.106 16.4877 13.7361 16.9945L12.5891 19.0081Z" fill="black"/>
</svg>
