<svg width="34" height="34" viewBox="0 0 34 34" fill="none" xmlns="http://www.w3.org/2000/svg">
    <path
        d="M21.0002 4.20001V9.00001C21.0002 9.88367 21.7166 10.6 22.6002 10.6H27.4002M25.0002 6.60001C24.2881 5.96287 23.5492 5.20718 23.0827 4.71638C22.7723 4.38979 22.3434 4.20001 21.8928 4.20001H9.79987C8.03257 4.20001 6.59988 5.63269 6.59987 7.39999L6.59975 26.5999C6.59974 28.3672 8.03242 29.7999 9.79973 29.7999L24.1998 29.8C25.9671 29.8 27.3998 28.3674 27.3998 26.6001L27.4002 9.63712C27.4002 9.228 27.2442 8.83473 26.9602 8.54019C26.4352 7.99554 25.5583 7.09937 25.0002 6.60001Z"
        stroke="#1D1B20" stroke-width="1.5" stroke-linecap="round" stroke-linejoin="round" />
</svg>