<svg width="34" height="34" viewBox="0 0 34 34" fill="none" xmlns="http://www.w3.org/2000/svg">
<path d="M5.66668 28.3333C4.88751 28.3333 4.21459 28.0618 3.64793 27.5187C3.10487 26.9521 2.83334 26.2792 2.83334 25.5V8.49999C2.83334 7.72082 3.10487 7.05971 3.64793 6.51666C4.21459 5.94999 4.88751 5.66666 5.66668 5.66666H22.6667C23.4458 5.66666 24.107 5.94999 24.65 6.51666C25.2167 7.05971 25.5 7.72082 25.5 8.49999V14.875L31.1667 9.20832V24.7917L25.5 19.125V25.5C25.5 26.2792 25.2167 26.9521 24.65 27.5187C24.107 28.0618 23.4458 28.3333 22.6667 28.3333H5.66668ZM5.66668 25.5H22.6667V8.49999H5.66668V25.5ZM5.66668 25.5V8.49999V25.5Z" fill="#1D1B20"/>
</svg>
