<svg width="109" height="109" viewBox="0 0 109 109" fill="none" xmlns="http://www.w3.org/2000/svg">
<path d="M81.7499 45.4166H76.0274C74.3282 38.8357 70.8172 32.8634 65.8933 28.1783C60.9694 23.4931 54.8301 20.283 48.173 18.9127C41.5158 17.5424 34.6078 18.0669 28.2338 20.4265C21.8599 22.7862 16.2756 26.8863 12.1155 32.2612C7.95536 37.636 5.38625 44.0699 4.70008 50.8319C4.01392 57.5939 5.2382 64.4128 8.23381 70.5137C11.2294 76.6146 15.8763 81.753 21.6463 85.345C27.4163 88.9369 34.0782 90.8384 40.8749 90.8333H81.7499C87.7725 90.8333 93.5485 88.4408 97.8071 84.1822C102.066 79.9235 104.458 74.1476 104.458 68.125C104.458 62.1023 102.066 56.3264 97.8071 52.0677C93.5485 47.8091 87.7725 45.4166 81.7499 45.4166Z" stroke="#1E1E1E" stroke-opacity="0.24" stroke-width="4" stroke-linecap="round" stroke-linejoin="round"/>
</svg>
