<svg width="24" height="24" viewBox="0 0 24 24" fill="none" xmlns="http://www.w3.org/2000/svg">
<path fill-rule="evenodd" clip-rule="evenodd" d="M8.35714 0.000870353C7.70301 0.0179602 7.07913 0.283927 6.61353 0.74573L0.748195 6.61106L0.745721 6.61354C0.270665 7.0925 0.00284805 7.73895 7.61237e-06 8.41354L0 8.41714V21.4286C0 22.1105 0.270917 22.7647 0.753154 23.2469C1.23539 23.7291 1.88943 24 2.57143 24H3.65762V16.2857C3.65762 15.7005 3.94085 15.192 4.35134 14.8532C4.75594 14.5193 5.26759 14.3571 5.76775 14.3571H18.2321C18.7323 14.3571 19.2441 14.5193 19.6486 14.8532C20.059 15.192 20.3424 15.7005 20.3424 16.2857V24H21.4286C22.1105 24 22.7647 23.7291 23.2469 23.2469C23.7291 22.7647 24 22.1105 24 21.4286V2.57143C24 1.88945 23.7291 1.2354 23.2469 0.753161C22.7647 0.270926 22.1105 7.56127e-06 21.4286 7.56127e-06L20.3424 0V6C20.3424 6.56306 20.0842 7.06749 19.6863 7.41408C19.2931 7.75656 18.7877 7.92857 18.2866 7.92857H10.4128C9.91178 7.92857 9.40648 7.75656 9.0132 7.41408C8.61523 7.06749 8.35714 6.56306 8.35714 6V0.000870353ZM18.1995 0H10.5V5.78571H18.1995V0ZM18.1995 24H5.80047V16.5H18.1995V24Z" fill="black"/>
</svg>
