<svg width="22" height="22" viewBox="0 0 22 22" fill="none" xmlns="http://www.w3.org/2000/svg">
<path d="M15.9699 13.44C17.3399 13.67 18.8499 13.43 19.9099 12.72C21.3199 11.78 21.3199 10.24 19.9099 9.30001C18.8399 8.59001 17.3099 8.35 15.9399 8.59M5.99994 13.44C4.62994 13.67 3.11994 13.43 2.05994 12.72C0.649941 11.78 0.649941 10.24 2.05994 9.30001C3.12994 8.59001 4.65994 8.35 6.02994 8.59M16.9999 6.16C16.9399 6.15 16.8699 6.15 16.8099 6.16C15.4299 6.11 14.3299 4.98 14.3299 3.58C14.3299 2.15 15.4799 1 16.9099 1C18.3399 1 19.4899 2.16 19.4899 3.58C19.4799 4.98 18.3799 6.11 16.9999 6.16ZM4.96994 6.16C5.02994 6.15 5.09994 6.15 5.15994 6.16C6.53994 6.11 7.63994 4.98 7.63994 3.58C7.63994 2.15 6.48994 1 5.05994 1C3.62994 1 2.47994 2.16 2.47994 3.58C2.48994 4.98 3.58994 6.11 4.96994 6.16ZM10.9999 13.63C10.9399 13.62 10.8699 13.62 10.8099 13.63C9.42994 13.58 8.32994 12.45 8.32994 11.05C8.32994 9.62 9.47994 8.47 10.9099 8.47C12.3399 8.47 13.4899 9.63 13.4899 11.05C13.4799 12.45 12.3799 13.59 10.9999 13.63ZM8.08994 16.78C6.67994 17.72 6.67994 19.26 8.08994 20.2C9.68994 21.27 12.3099 21.27 13.9099 20.2C15.3199 19.26 15.3199 17.72 13.9099 16.78C12.3199 15.72 9.68994 15.72 8.08994 16.78Z" stroke="#292D32" stroke-width="1.5" stroke-linecap="round" stroke-linejoin="round"/>
</svg>
