<svg width="30" height="30" viewBox="0 0 30 30" fill="none" xmlns="http://www.w3.org/2000/svg">
<path fill-rule="evenodd" clip-rule="evenodd" d="M17.5145 3.47441C16.8732 0.841865 13.1268 0.841865 12.4855 3.47441C12.3898 3.86999 12.202 4.23738 11.9375 4.54668C11.6729 4.85598 11.3391 5.09845 10.9631 5.25436C10.5871 5.41027 10.1797 5.47521 9.77388 5.4439C9.36808 5.41259 8.9754 5.28592 8.6278 5.07418C6.31248 3.66341 3.66302 6.31282 5.07381 8.62811C5.98509 10.1233 5.17676 12.074 3.4757 12.4875C0.841433 13.1271 0.841433 16.8751 3.4757 17.5129C3.8714 17.6088 4.23886 17.7968 4.54816 18.0615C4.85747 18.3263 5.09987 18.6603 5.25563 19.0365C5.41139 19.4126 5.47611 19.8203 5.44452 20.2262C5.41292 20.6321 5.28591 21.0248 5.07381 21.3723C3.66302 23.6876 6.31248 26.337 8.6278 24.9262C8.97534 24.7142 9.36805 24.5871 9.77396 24.5555C10.1799 24.5239 10.5875 24.5887 10.9637 24.7444C11.3398 24.9002 11.6739 25.1426 11.9387 25.4519C12.2034 25.7612 12.3914 26.1286 12.4872 26.5243C13.1268 29.1586 16.8749 29.1586 17.5128 26.5243C17.609 26.1288 17.7971 25.7616 18.0619 25.4526C18.3267 25.1435 18.6607 24.9012 19.0368 24.7455C19.4128 24.5898 19.8203 24.525 20.2261 24.5564C20.6319 24.5878 21.0246 24.7145 21.3722 24.9262C23.6875 26.337 26.337 23.6876 24.9262 21.3723C24.7145 21.0247 24.5878 20.632 24.5564 20.2262C24.525 19.8204 24.5897 19.413 24.7455 19.0369C24.9012 18.6609 25.1434 18.3269 25.4525 18.0621C25.7616 17.7973 26.1288 17.6091 26.5243 17.5129C29.1586 16.8734 29.1586 13.1254 26.5243 12.4875C26.1286 12.3916 25.7611 12.2037 25.4518 11.9389C25.1425 11.6742 24.9001 11.3401 24.7444 10.964C24.5886 10.5878 24.5239 10.1802 24.5555 9.77425C24.5871 9.36835 24.7141 8.97564 24.9262 8.62811C26.337 6.31282 23.6875 3.66341 21.3722 5.07418C21.0247 5.28627 20.632 5.41328 20.226 5.44488C19.8201 5.47647 19.4125 5.41175 19.0363 5.25599C18.6602 5.10023 18.3261 4.85783 18.0613 4.54853C17.7966 4.23924 17.6086 3.87178 17.5128 3.47609L17.5145 3.47441Z" stroke="#386A61" stroke-width="2"/>
<path d="M18 15C18 16.6569 16.6569 18 15 18C13.3431 18 12 16.6569 12 15C12 13.3431 13.3431 12 15 12C16.6569 12 18 13.3431 18 15Z" stroke="#386A61" stroke-width="2"/>
</svg>
